<svg width="71" height="71" viewBox="0 0 71 71" fill="none" xmlns="http://www.w3.org/2000/svg">
<rect x="0.0734863" y="0.226685" width="70.48" height="70.48" rx="23" fill="black"/>
<path d="M55.1152 31.9257L58.825 30.5478L60.2528 31.948C60.1286 32.3296 59.4555 33.9862 59.4283 33.4536C59.3628 32.1741 58.3794 33.3657 57.4541 33.0286C56.4939 32.6787 55.4759 32.213 55.1152 31.9257Z" fill="white"/>
<path d="M21.4891 40.4977C21.3889 38.538 20.8691 34.3283 25.7949 29.374C24.3632 34.0929 24.2844 36.2665 24.6472 37.6654C25.1007 39.414 26.5993 40.7401 28.2643 41.4406C34.1461 43.9154 42.5476 44.4676 46.0462 44.0273C48.0722 43.7723 49.9941 42.8475 50.3044 40.4977C51.4324 39.2239 51.5851 40.384 51.8676 38.9432C51.8123 41.3863 51.189 45.4632 49.5015 45.7029C35.8623 47.6401 21.6178 43.0169 21.4891 40.4977Z" fill="white"/>
<path d="M50.9316 38.0697C50.6328 38.2784 50.2247 41.8935 50.058 43.675C50.342 43.87 51.4764 43.1865 51.6654 41.5908C51.8545 39.9952 52.6952 39.4623 53.3515 39.058C58.2377 37.0286 60.4423 33.054 60.9338 31.3204L59.6317 31.387C58.8002 32.4611 56.6774 34.8842 54.8382 35.984C52.5393 37.3589 51.3052 37.8088 50.9316 38.0697Z" fill="white"/>
<path d="M50.9125 26.8313C54.2889 28.1245 59.3278 30.0806 61.051 31.4111L59.5991 31.4854L51.958 28.6314C50.6518 29.0391 48.7703 30.1547 48.0528 30.6229C47.3353 31.091 43.4098 35.2031 43.4305 35.3038C43.4234 35.2692 43.4313 35.2993 43.3071 35.2193C43.4594 34.6702 46.0847 29.3872 46.0847 29.3872C46.0847 29.3872 49.5008 27.2858 50.9125 26.8313Z" fill="white"/>
<path d="M50.655 26.0546C47.9258 26.5462 40.5985 26.3065 38.3522 26.1876C43.7825 28.7919 39.7379 31.7945 45.5009 27.5542C45.6544 27.4412 47.6918 28.0625 50.0993 28.7496L50.655 26.0546Z" fill="white"/>
<path d="M31.3546 23.9183C37.588 21.8449 44.7392 21.9075 50.2474 27.0438L51.1492 26.9977C47.0346 19.6142 37.6364 19.1007 33.4515 19.7669C12.4138 22.3502 9.56865 42.8141 10.0426 43.2419C10.4217 43.5841 18.5401 42.0047 18.9403 41.482C19.5119 32.1594 23.3323 26.5867 31.3546 23.9183Z" fill="white"/>
<path d="M49.8434 40.6615C51.0996 40.4605 53.7632 38.4501 54.45 36.9284C45.9624 35.7051 41.8848 38.3033 41.3949 40.297C43.6876 40.5022 48.5871 40.8624 49.8434 40.6615Z" fill="white"/>
</svg>
