<svg width="65" height="64" viewBox="0 0 65 64" fill="none" xmlns="http://www.w3.org/2000/svg">
<rect x="0.594727" y="0.130493" width="63.7143" height="63.7143" rx="23" fill="black"/>
<path d="M30.458 26.9115L23.229 31.6861C23.0196 31.8285 23.0196 32.1385 23.229 32.2809L30.525 37.0974C30.8936 37.3403 31.1198 37.7592 31.1198 38.2031V45.7672C31.1198 46.0688 30.7763 46.2531 30.525 46.0771L17.6167 37.0723C17.2816 36.8377 17.0806 36.4608 17.0806 36.0503V27.925C17.0806 27.5146 17.2816 27.1376 17.6167 26.9031L30.525 17.8898C30.7763 17.7139 31.1198 17.8898 31.1198 18.1998V25.6885C31.1198 26.1827 30.8685 26.6434 30.458 26.9198V26.9115Z" fill="white"/>
<path d="M47.823 27.925V36.0503C47.823 36.4608 47.6219 36.8377 47.2869 37.0723L34.3701 46.0855C34.1188 46.2614 33.7754 46.0855 33.7754 45.7756V38.2115C33.7754 37.7675 34.0016 37.3487 34.3701 37.1058L41.6662 32.2892C41.8756 32.1468 41.8756 31.8369 41.6662 31.6945L34.4371 26.9198C34.0267 26.6434 33.7754 26.1827 33.7754 25.6884V18.1997C33.7754 17.8982 34.1188 17.7139 34.3701 17.8898L47.2869 26.9031C47.6219 27.1376 47.823 27.5145 47.823 27.925Z" fill="white"/>
</svg>
