<svg width="21" height="21" viewBox="0 0 21 21" fill="none" xmlns="http://www.w3.org/2000/svg">
<path d="M9.07986 4.75639L9.07986 12.0839L7.04736 10.0514C6.81297 9.8169 6.49503 9.68512 6.16349 9.68504C5.83194 9.68496 5.51394 9.81659 5.27944 10.051C5.04495 10.2854 4.91316 10.6033 4.91309 10.9348C4.91301 11.2664 5.04464 11.5844 5.27902 11.8189L8.26736 14.8072C8.81489 15.3533 9.5566 15.6599 10.3299 15.6599C11.1031 15.6599 11.8448 15.3533 12.3924 14.8072L15.3807 11.8189C15.6151 11.5844 15.7467 11.2664 15.7466 10.9348C15.7466 10.6033 15.6148 10.2854 15.3803 10.051C15.1458 9.81659 14.8278 9.68496 14.4962 9.68504C14.1647 9.68512 13.8467 9.8169 13.6124 10.0514L11.5799 12.0839L11.5799 4.75639C11.5799 4.42487 11.4482 4.10693 11.2137 3.87251C10.9793 3.63809 10.6614 3.50639 10.3299 3.50639C9.99834 3.50639 9.6804 3.63809 9.44597 3.87251C9.21155 4.10693 9.07986 4.42487 9.07986 4.75639Z" fill="white"/>
</svg>
