<svg width="13" height="9" viewBox="0 0 13 9" fill="none" xmlns="http://www.w3.org/2000/svg">
<path d="M12.5407 0.860414C12.4236 0.726581 12.2847 0.620414 12.1317 0.54798C11.9788 0.475545 11.8149 0.438263 11.6493 0.438263C11.4837 0.438263 11.3198 0.475545 11.1669 0.54798C11.0139 0.620414 10.875 0.726581 10.7579 0.860414L6.90516 5.26263C6.82639 5.35262 6.71956 5.40318 6.60818 5.40318C6.49679 5.40318 6.38997 5.35262 6.3112 5.26263L2.45926 0.860414C2.22297 0.590238 1.90244 0.438403 1.5682 0.438313C1.23395 0.438223 0.913359 0.589885 0.676955 0.859934C0.440551 1.12998 0.307696 1.4963 0.307617 1.8783C0.307538 2.26029 0.440242 2.62668 0.676535 2.89686L4.52931 7.30003C4.80235 7.61211 5.12652 7.85967 5.48328 8.02857C5.84005 8.19747 6.22243 8.28441 6.6086 8.28441C6.99476 8.28441 7.37715 8.19747 7.73391 8.02857C8.09068 7.85967 8.41484 7.61211 8.68789 7.30003L12.5407 2.89686C12.7769 2.62678 12.9096 2.26052 12.9096 1.87864C12.9096 1.49675 12.7769 1.13049 12.5407 0.860414Z" fill="#374957"/>
</svg>
