<svg width="23" height="22" viewBox="0 0 23 22" fill="none" xmlns="http://www.w3.org/2000/svg">
<g opacity="0.5" clip-path="url(#clip0_461_1212)">
<path d="M11.0388 0C8.86323 0 6.73649 0.645139 4.92755 1.85383C3.11861 3.06253 1.70871 4.7805 0.876148 6.79048C0.0435845 8.80047 -0.174252 11.0122 0.250185 13.146C0.674623 15.2798 1.72227 17.2398 3.26065 18.7782C4.79903 20.3166 6.75904 21.3642 8.89283 21.7886C11.0266 22.2131 13.2384 21.9952 15.2483 21.1627C17.2583 20.3301 18.9763 18.9202 20.185 17.1113C21.3937 15.3023 22.0388 13.1756 22.0388 11C22.0357 8.08359 20.8757 5.28753 18.8135 3.22531C16.7513 1.16309 13.9552 0.00315432 11.0388 0V0ZM11.0388 19.25C9.40713 19.25 7.81207 18.7661 6.45537 17.8596C5.09866 16.9531 4.04124 15.6646 3.41682 14.1571C2.79239 12.6496 2.62902 10.9908 2.94734 9.39051C3.26567 7.79016 4.05141 6.32015 5.20519 5.16637C6.35898 4.01259 7.82899 3.22685 9.42933 2.90852C11.0297 2.59019 12.6885 2.75357 14.196 3.37799C15.7035 4.00242 16.9919 5.05984 17.8984 6.41655C18.805 7.77325 19.2888 9.36831 19.2888 11C19.2862 13.1872 18.4161 15.2841 16.8695 16.8307C15.3229 18.3773 13.226 19.2473 11.0388 19.25Z" fill="#374957"/>
<path d="M10.6219 8.74983H10.3469C9.98662 8.74098 9.63603 8.86702 9.36386 9.10324C9.0917 9.33945 8.91757 9.66881 8.87563 10.0267C8.85165 10.3848 8.96862 10.7381 9.20155 11.0111C9.43448 11.2841 9.76492 11.4552 10.1223 11.4879V15.7504C10.1223 16.1151 10.2672 16.4648 10.525 16.7227C10.7829 16.9805 11.1326 17.1254 11.4973 17.1254C11.862 17.1254 12.2117 16.9805 12.4696 16.7227C12.7274 16.4648 12.8723 16.1151 12.8723 15.7504V11.0002C12.8723 10.4034 12.6352 9.83099 12.2132 9.40896C11.7911 8.98692 11.2187 8.74983 10.6219 8.74983Z" fill="#374957"/>
<path d="M10.8832 7.76087C11.1943 7.76087 11.4984 7.66861 11.7571 7.49577C12.0158 7.32293 12.2174 7.07726 12.3365 6.78983C12.4555 6.5024 12.4867 6.18612 12.426 5.88099C12.3653 5.57586 12.2155 5.29558 11.9955 5.07559C11.7755 4.8556 11.4952 4.70579 11.1901 4.64509C10.8849 4.5844 10.5687 4.61555 10.2812 4.73461C9.99379 4.85366 9.74812 5.05528 9.57528 5.31396C9.40244 5.57264 9.31018 5.87676 9.31018 6.18787C9.31006 6.39447 9.35067 6.59907 9.42967 6.78997C9.50868 6.98087 9.62454 7.15433 9.77064 7.30042C9.91673 7.44651 10.0902 7.56237 10.2811 7.64138C10.472 7.72038 10.6766 7.76099 10.8832 7.76087Z" fill="#374957"/>
</g>
<defs>
<clipPath id="clip0_461_1212">
<rect width="22" height="22" fill="white" transform="translate(0.0388184)"/>
</clipPath>
</defs>
</svg>
