<svg width="151" height="23" viewBox="0 0 151 23" fill="none" xmlns="http://www.w3.org/2000/svg">
<path d="M34.6446 10.2765L37.3765 9.26178L38.428 10.2929C38.3365 10.5739 37.8409 11.7938 37.8208 11.4016C37.7726 10.4594 37.0484 11.3369 36.367 11.0886C35.6599 10.831 34.9102 10.488 34.6446 10.2765Z" fill="white"/>
<path d="M9.88193 16.5888C9.80815 15.1457 9.4254 12.0456 13.0528 8.39721C11.9985 11.8722 11.9404 13.4729 12.2076 14.5031C12.5416 15.7908 13.6451 16.7673 14.8713 17.2832C19.2027 19.1056 25.3896 19.5122 27.966 19.188C29.4579 19.0002 30.8732 18.3192 31.1017 16.5888C31.9324 15.6508 32.0449 16.5051 32.2529 15.444C32.2121 17.2432 31.7532 20.2455 30.5105 20.422C20.4665 21.8485 9.97676 18.4439 9.88193 16.5888Z" fill="white"/>
<path d="M31.5636 14.8009C31.3436 14.9546 31.0431 17.6167 30.9203 18.9286C31.1294 19.0722 31.9648 18.5689 32.104 17.3938C32.2433 16.2188 32.8624 15.8263 33.3457 15.5286C36.9439 14.0341 38.5673 11.1072 38.9293 9.83059L37.9704 9.87966C37.3581 10.6706 35.7948 12.455 34.4405 13.265C32.7475 14.2774 31.8387 14.6087 31.5636 14.8009Z" fill="white"/>
<path d="M31.5495 6.5248C34.0359 7.47709 37.7466 8.91759 39.0156 9.89737L37.9464 9.95208L32.3194 7.8504C31.3575 8.15067 29.972 8.97215 29.4436 9.31693C28.9152 9.66171 26.0245 12.6899 26.0397 12.764C26.0345 12.7385 26.0403 12.7607 25.9488 12.7018C26.061 12.2975 27.9943 8.40698 27.9943 8.40698C27.9943 8.40698 30.5099 6.85953 31.5495 6.5248Z" fill="white"/>
<path d="M31.36 5.95284C29.3501 6.31485 23.9543 6.13836 22.3001 6.05078C26.299 7.96857 23.3205 10.1797 27.5644 7.05713C27.6775 6.97393 29.1778 7.43148 30.9507 7.93748L31.36 5.95284Z" fill="white"/>
<path d="M17.147 4.37962C21.7373 2.8528 27.0034 2.8989 31.0597 6.6813L31.7238 6.64732C28.6938 1.21007 21.7729 0.831905 18.6911 1.32248C3.19882 3.22485 1.10361 18.2947 1.45261 18.6097C1.7318 18.8617 7.71023 17.6986 8.00493 17.3137C8.4259 10.4485 11.2392 6.34463 17.147 4.37962Z" fill="white"/>
<path d="M30.7622 16.7095C31.6874 16.5615 33.6488 15.0811 34.1546 13.9604C27.9043 13.0596 24.9015 14.9729 24.5407 16.4411C26.2291 16.5922 29.8371 16.8575 30.7622 16.7095Z" fill="white"/>
<path d="M133.282 17.2842L140.254 3.34178C140.306 3.28971 140.351 3.26367 140.39 3.26367H143.319C143.384 3.26367 143.43 3.28971 143.456 3.34178L150.447 17.2842C150.473 17.3363 150.466 17.3884 150.427 17.4404C150.401 17.4925 150.362 17.5185 150.31 17.5185H147.635C147.57 17.5185 147.524 17.486 147.498 17.4209L146.326 15.0776C146.3 15.0256 146.255 14.9995 146.19 14.9995H137.52C137.468 14.9995 137.429 15.0256 137.403 15.0776L136.231 17.4209C136.192 17.486 136.146 17.5185 136.094 17.5185H133.419C133.354 17.5185 133.308 17.4925 133.282 17.4404C133.256 17.3884 133.256 17.3363 133.282 17.2842ZM138.926 12.3048H144.784C144.823 12.3048 144.849 12.2918 144.862 12.2657C144.888 12.2267 144.888 12.1941 144.862 12.1681L141.913 6.27086C141.887 6.20577 141.855 6.20577 141.816 6.27086L138.848 12.1681C138.822 12.2592 138.848 12.3048 138.926 12.3048Z" fill="white"/>
<path d="M116.881 3.49794C116.881 3.35474 116.959 3.28314 117.115 3.28314H130.199C130.264 3.28314 130.309 3.31569 130.335 3.38078L131.097 5.78263C131.123 5.8347 131.116 5.88026 131.077 5.91932C131.051 5.95837 131.012 5.9779 130.96 5.9779H119.791C119.647 5.9779 119.576 6.0495 119.576 6.1927V8.86793C119.576 8.97207 119.621 9.02414 119.712 9.02414H128.07C128.122 9.02414 128.161 9.04367 128.187 9.08273C128.213 9.12178 128.22 9.16083 128.207 9.19989L127.445 11.6017C127.419 11.6798 127.367 11.7189 127.289 11.7189H119.712C119.621 11.7189 119.576 11.7645 119.576 11.8556V14.5308C119.576 14.5959 119.595 14.6545 119.634 14.7066C119.673 14.7456 119.726 14.7651 119.791 14.7651H130.96C131.012 14.7651 131.051 14.7847 131.077 14.8237C131.116 14.8628 131.123 14.9018 131.097 14.9409L130.335 17.3427C130.309 17.4078 130.264 17.4404 130.199 17.4404H117.115C116.959 17.4404 116.881 17.3688 116.881 17.2256V3.49794Z" fill="white"/>
<path d="M96.0891 3.26367H98.9987C99.0508 3.26367 99.0833 3.2832 99.0963 3.32225L105.345 13.574C105.371 13.6131 105.404 13.6326 105.443 13.6326C105.482 13.6326 105.508 13.6131 105.521 13.574L111.125 3.32225C111.125 3.2832 111.151 3.26367 111.203 3.26367H114.035C114.074 3.26367 114.106 3.2832 114.132 3.32225C114.158 3.34829 114.158 3.38083 114.132 3.41989L106.458 17.46C106.419 17.499 106.393 17.5185 106.38 17.5185H104.642C104.603 17.5185 104.57 17.499 104.544 17.46L96.011 3.41989C95.985 3.39385 95.9785 3.36131 95.9915 3.32225C96.0175 3.2832 96.0501 3.26367 96.0891 3.26367Z" fill="white"/>
<path d="M81.609 17.2842L88.5802 3.34178C88.6323 3.28971 88.6779 3.26367 88.7169 3.26367H91.646C91.7111 3.26367 91.7566 3.28971 91.7827 3.34178L98.7734 17.2842C98.7995 17.3363 98.793 17.3884 98.7539 17.4404C98.7279 17.4925 98.6888 17.5185 98.6367 17.5185H95.9615C95.8964 17.5185 95.8509 17.486 95.8248 17.4209L94.6532 15.0776C94.6272 15.0256 94.5816 14.9995 94.5165 14.9995H85.8464C85.7943 14.9995 85.7553 15.0256 85.7292 15.0776L84.5576 17.4209C84.5186 17.486 84.473 17.5185 84.4209 17.5185H81.7457C81.6806 17.5185 81.635 17.4925 81.609 17.4404C81.583 17.3884 81.583 17.3363 81.609 17.2842ZM87.2524 12.3048H93.1105C93.1496 12.3048 93.1756 12.2918 93.1886 12.2657C93.2147 12.2267 93.2147 12.1941 93.1886 12.1681L90.24 6.27086C90.214 6.20577 90.1815 6.20577 90.1424 6.27086L87.1743 12.1681C87.1482 12.2592 87.1743 12.3048 87.2524 12.3048Z" fill="white"/>
<path d="M63.244 3.38083C63.244 3.30273 63.2831 3.26367 63.3612 3.26367H74.3355C74.9734 3.26367 75.5592 3.39385 76.0929 3.65422C76.6397 3.90156 77.1083 4.24003 77.4989 4.66963C77.9025 5.09923 78.2149 5.59392 78.4362 6.1537C78.6705 6.70046 78.7877 7.26675 78.7877 7.85257C78.7877 8.4514 78.677 9.00467 78.4557 9.51238C78.2344 10.0201 77.9285 10.4627 77.5379 10.8402C77.1474 11.2178 76.6787 11.5172 76.132 11.7385C75.5982 11.9468 75.0189 12.0574 74.3941 12.0704C74.342 12.0704 74.3355 12.09 74.3745 12.129L79.1587 17.3428C79.1847 17.3688 79.1847 17.4014 79.1587 17.4404C79.1457 17.4795 79.1196 17.499 79.0806 17.499H75.9172C75.8911 17.499 75.8651 17.486 75.8391 17.46L70.9182 12.1095C70.8922 12.0835 70.8661 12.0704 70.8401 12.0704H66.0559C65.9778 12.0704 65.9388 12.1095 65.9388 12.1876V17.3623C65.9388 17.4404 65.8997 17.4795 65.8216 17.4795H63.3612C63.2831 17.4795 63.244 17.4404 63.244 17.3623V3.38083ZM66.0559 9.37569H74.3355C74.5438 9.37569 74.7521 9.34965 74.9604 9.29758C75.1686 9.23249 75.3574 9.14136 75.5266 9.0242C75.6959 8.89402 75.8326 8.73129 75.9367 8.53602C76.0409 8.34075 76.0929 8.11293 76.0929 7.85257C76.0929 7.5922 76.0409 7.35137 75.9367 7.13006C75.8456 6.89573 75.7154 6.69395 75.5462 6.52472C75.3769 6.35548 75.1882 6.21879 74.9799 6.11465C74.7716 6.0105 74.5568 5.95843 74.3355 5.95843H66.0559C65.9778 5.95843 65.9388 5.99748 65.9388 6.07559V9.25853C65.9388 9.33664 65.9778 9.37569 66.0559 9.37569Z" fill="white"/>
<path d="M44.2503 3.26367H54.463C55.3222 3.26367 56.0382 3.38734 56.611 3.63469C57.1968 3.86902 57.6655 4.17494 58.017 4.55247C58.3684 4.91698 58.6158 5.32705 58.759 5.78268C58.9152 6.23832 58.9933 6.68093 58.9933 7.11053C58.9933 7.5141 58.9347 7.89162 58.8176 8.24311C58.7134 8.5946 58.5637 8.90704 58.3684 9.18042C58.1862 9.44078 57.9649 9.64907 57.7045 9.80529C57.4572 9.94849 57.1838 10.0201 56.8844 10.0201V10.0591C57.1968 10.0591 57.5418 10.1112 57.9193 10.2154C58.2968 10.3195 58.6483 10.4953 58.9738 10.7426C59.2992 10.9769 59.5726 11.3024 59.7939 11.719C60.0152 12.1355 60.1259 12.6563 60.1259 13.2811C60.1259 13.6587 60.0478 14.0948 59.8916 14.5895C59.7354 15.0711 59.475 15.5268 59.1105 15.9564C58.759 16.386 58.2838 16.7505 57.685 17.0499C57.0862 17.3493 56.3376 17.499 55.4394 17.499H44.2503C44.1331 17.499 44.0745 17.4404 44.0745 17.3233V3.43942C44.0745 3.32225 44.1331 3.26367 44.2503 3.26367ZM46.7693 11.719V14.6285C46.7693 14.7457 46.8279 14.8043 46.945 14.8043H55.1855C55.6932 14.8043 56.0968 14.7457 56.3962 14.6285C56.6956 14.4983 56.9169 14.3551 57.0601 14.1989C57.2163 14.0297 57.314 13.8604 57.353 13.6912C57.4051 13.509 57.4311 13.3723 57.4311 13.2811C57.4311 12.8255 57.2359 12.4284 56.8453 12.09C56.4548 11.7385 55.8755 11.5627 55.1074 11.5627H46.945C46.8279 11.5627 46.7693 11.6148 46.7693 11.719ZM46.945 8.84846H54.7364C55.2831 8.84846 55.6932 8.7378 55.9666 8.51649C56.253 8.29519 56.3962 7.91115 56.3962 7.36439C56.3962 6.94781 56.2595 6.60933 55.9861 6.34897C55.7258 6.08861 55.3092 5.95843 54.7364 5.95843H46.945C46.8279 5.95843 46.7693 6.01701 46.7693 6.13417V8.69224C46.7693 8.79638 46.8279 8.84846 46.945 8.84846Z" fill="white"/>
</svg>
