<svg width="22" height="22" viewBox="0 0 22 22" fill="none" xmlns="http://www.w3.org/2000/svg">
<circle cx="11.0173" cy="11.1655" r="10.7883" fill="black"/>
<path d="M10.2152 9.12312L7.30667 11.0442C7.22241 11.1015 7.22241 11.2262 7.30667 11.2835L10.2422 13.2214C10.3905 13.3191 10.4815 13.4876 10.4815 13.6663V16.7096C10.4815 16.8309 10.3433 16.9051 10.2422 16.8343L5.04858 13.2113C4.91377 13.1169 4.83289 12.9652 4.83289 12.8001V9.53093C4.83289 9.36578 4.91377 9.21412 5.04858 9.11975L10.2422 5.49334C10.3433 5.42256 10.4815 5.49334 10.4815 5.61804V8.63106C10.4815 8.82991 10.3804 9.01528 10.2152 9.12649V9.12312Z" fill="white"/>
<path d="M17.2018 9.53097V12.8001C17.2018 12.9653 17.1209 13.1169 16.9861 13.2113L11.7891 16.8377C11.688 16.9085 11.5498 16.8377 11.5498 16.713V13.6697C11.5498 13.491 11.6408 13.3225 11.7891 13.2248L14.7246 11.2869C14.8089 11.2296 14.8089 11.1049 14.7246 11.0476L11.8161 9.12653C11.6509 9.01532 11.5498 8.82995 11.5498 8.6311V5.61808C11.5498 5.49675 11.688 5.4226 11.7891 5.49338L16.9861 9.11979C17.1209 9.21416 17.2018 9.36582 17.2018 9.53097Z" fill="white"/>
</svg>
