<svg width="8" height="12" viewBox="0 0 8 12" fill="none" xmlns="http://www.w3.org/2000/svg">
<path d="M3.78336 9.5198V8.08415C3.78336 7.90483 3.78336 7.81516 3.75516 7.74406C3.71445 7.64137 3.63313 7.56005 3.53045 7.51934C3.45934 7.49114 3.36967 7.49114 3.19035 7.49114C2.0011 7.49114 1.40647 7.49114 1.04282 7.28846C0.516813 6.9953 0.199651 6.43192 0.221791 5.83015C0.237107 5.4141 0.545521 4.9057 1.16232 3.8889L2.29745 2.01768C2.89783 1.02795 3.19802 0.533106 3.49069 0.61494C3.78336 0.696758 3.78336 1.27555 3.78336 2.43313V3.86878C3.78336 4.0481 3.78336 4.13775 3.81155 4.20887C3.85226 4.31156 3.93358 4.39288 4.03626 4.43359C4.10737 4.46179 4.19704 4.46179 4.37636 4.46179C5.56561 4.46179 6.16024 4.46178 6.52389 4.66446C7.0499 4.95763 7.36706 5.52101 7.34492 6.12278C7.3296 6.53882 7.02119 7.04722 6.40439 8.06403L5.26926 9.93524C4.66888 10.925 4.36869 11.4198 4.07602 11.338C3.78336 11.2562 3.78336 10.6774 3.78336 9.5198Z" fill="white"/>
</svg>
