<svg width="12" height="12" viewBox="0 0 12 12" fill="none" xmlns="http://www.w3.org/2000/svg">
<path d="M10.155 4.69888H7.49026V2.03411C7.49026 1.68074 7.34988 1.34184 7.10001 1.09197C6.85014 0.842097 6.51124 0.701721 6.15787 0.701721C5.8045 0.701721 5.4656 0.842097 5.21573 1.09197C4.96586 1.34184 4.82548 1.68074 4.82548 2.03411V4.69888H2.16071C1.80734 4.69888 1.46844 4.83926 1.21857 5.08913C0.968699 5.339 0.828323 5.6779 0.828323 6.03127C0.828323 6.38464 0.968699 6.72354 1.21857 6.97341C1.46844 7.22328 1.80734 7.36366 2.16071 7.36366H4.82548V10.0284C4.82548 10.3818 4.96586 10.7207 5.21573 10.9706C5.4656 11.2204 5.8045 11.3608 6.15787 11.3608C6.51124 11.3608 6.85014 11.2204 7.10001 10.9706C7.34988 10.7207 7.49026 10.3818 7.49026 10.0284V7.36366H10.155C10.5084 7.36366 10.8473 7.22328 11.0972 6.97341C11.347 6.72354 11.4874 6.38464 11.4874 6.03127C11.4874 5.6779 11.347 5.339 11.0972 5.08913C10.8473 4.83926 10.5084 4.69888 10.155 4.69888Z" fill="white"/>
</svg>
