<svg width="13" height="14" viewBox="0 0 13 14" fill="none" xmlns="http://www.w3.org/2000/svg">
<g clip-path="url(#clip0_266_1069)">
<path d="M11.6985 1.00251C11.5214 0.81113 11.3074 0.664654 11.0718 0.573616C10.8362 0.482578 10.5849 0.449243 10.336 0.476007C8.98698 0.617382 4.44498 1.22892 2.65848 3.1643C1.81959 4.07953 1.3097 5.28901 1.22051 6.57518C1.13133 7.86135 1.46872 9.13978 2.17198 10.1805L0.417983 12.0801C0.277285 12.2326 0.198242 12.4393 0.198242 12.6548C0.198242 12.8704 0.277285 13.0771 0.417983 13.2295C0.55868 13.382 0.749506 13.4676 0.948483 13.4676C1.14746 13.4676 1.33829 13.382 1.47898 13.2295L3.23248 11.3294C4.19315 12.0913 5.37325 12.4568 6.56048 12.3601C7.74771 12.2635 8.86415 11.7111 9.70898 10.8023C11.5205 8.83988 12.067 3.93401 12.191 2.47638C12.2144 2.20656 12.1825 1.93445 12.0973 1.67961C12.0121 1.42478 11.8759 1.19354 11.6985 1.00251ZM8.64848 9.65292C8.08589 10.2589 7.34976 10.6395 6.56105 10.7323C5.77234 10.825 4.97797 10.6243 4.30848 10.1632L8.47898 5.64567C8.61968 5.49325 8.69872 5.28652 8.69872 5.07097C8.69872 4.85541 8.61968 4.64868 8.47898 4.49626C8.33829 4.34383 8.14746 4.2582 7.94848 4.2582C7.74951 4.2582 7.55868 4.34383 7.41798 4.49626L3.24848 9.01484C2.82283 8.28956 2.63759 7.429 2.72318 6.57456C2.80878 5.72012 3.16012 4.92265 3.71948 4.31317C4.85948 3.07817 8.07398 2.34584 10.481 2.09234C10.5101 2.08895 10.5396 2.09269 10.5672 2.10328C10.5948 2.11388 10.6198 2.13105 10.6405 2.15355C10.6618 2.17569 10.6781 2.20284 10.6881 2.23289C10.6982 2.26295 10.7017 2.29511 10.6985 2.32688C10.476 4.92255 9.80648 8.39842 8.64848 9.65292Z" fill="white"/>
</g>
<defs>
<clipPath id="clip0_266_1069">
<rect width="12" height="13" fill="white" transform="translate(0.198486 0.467377)"/>
</clipPath>
</defs>
</svg>
