<svg width="15" height="15" viewBox="0 0 15 15" fill="none" xmlns="http://www.w3.org/2000/svg">
<g clip-path="url(#clip0_266_1078)">
<path d="M11.3293 5.10665V4.239C11.3293 1.93516 9.4617 0.0675354 7.15786 0.0675354C4.85402 0.0675354 2.98642 1.93516 2.98642 4.23897V5.10663C1.89041 5.66594 1.19999 6.79198 1.19865 8.02247V11.0021C1.20064 12.8114 2.66688 14.2777 4.47621 14.2796H9.8395C11.6488 14.2777 13.1151 12.8114 13.1171 11.0021V8.02249C13.1157 6.79201 12.4253 5.66594 11.3293 5.10665ZM7.15786 1.8553C8.47432 1.8553 9.54153 2.92251 9.54153 4.23897V4.74491H4.77418V4.23897C4.77418 2.92251 5.84139 1.8553 7.15786 1.8553ZM11.3293 11.0021C11.3293 11.8249 10.6623 12.4919 9.83953 12.4919H4.47624C3.65345 12.4919 2.98645 11.8249 2.98645 11.0021V8.02249C2.98645 7.1997 3.65345 6.5327 4.47624 6.5327H9.83953C10.6623 6.5327 11.3293 7.1997 11.3293 8.02249V11.0021Z" fill="white"/>
<path d="M6.85993 8.32043H7.45584C7.94951 8.32043 8.34972 8.72064 8.34972 9.21431C8.34972 9.70799 7.94951 10.1082 7.45584 10.1082H6.85993C6.36626 10.1082 5.96605 9.70799 5.96605 9.21431C5.96605 8.72064 6.36626 8.32043 6.85993 8.32043Z" fill="white"/>
</g>
<defs>
<clipPath id="clip0_266_1078">
<rect width="14.2121" height="14.2121" fill="white" transform="translate(0.0518036 0.0675354)"/>
</clipPath>
</defs>
</svg>
