<svg width="15" height="15" viewBox="0 0 15 15" fill="none" xmlns="http://www.w3.org/2000/svg">
<g clip-path="url(#clip0_266_1065)">
<path d="M14.2634 11.4787L14.2634 3.67507C14.2697 2.83285 13.9417 2.02251 13.3513 1.42181C12.7609 0.821116 11.9564 0.479113 11.1142 0.470825L10.0104 0.470825C9.7748 0.470825 9.54887 0.564409 9.38229 0.73099C9.21571 0.89757 9.12212 1.1235 9.12212 1.35908C9.12212 1.59466 9.21571 1.8206 9.38229 1.98718C9.54887 2.15376 9.7748 2.24734 10.0104 2.24734L11.1142 2.24734C11.4853 2.25527 11.8382 2.40999 12.0955 2.6776C12.3528 2.94521 12.4935 3.3039 12.4868 3.67507L12.4868 11.4787C12.4935 11.8499 12.3528 12.2086 12.0955 12.4762C11.8382 12.7438 11.4853 12.8985 11.1142 12.9064L3.2004 12.9064C2.82925 12.8985 2.47638 12.7438 2.21909 12.4762C1.96181 12.2086 1.82108 11.8499 1.82775 11.4787L1.82775 3.67507C1.82108 3.3039 1.96181 2.94521 2.2191 2.6776C2.47638 2.40999 2.82926 2.25527 3.2004 2.24734L4.30421 2.24734C4.53979 2.24734 4.76572 2.15376 4.9323 1.98718C5.09888 1.8206 5.19247 1.59466 5.19247 1.35908C5.19247 1.1235 5.09888 0.89757 4.9323 0.73099C4.76572 0.564409 4.53979 0.470825 4.30421 0.470825L3.2004 0.470825C2.3582 0.479112 1.55367 0.821116 0.963295 1.42181C0.372923 2.02251 0.044916 2.83285 0.0512293 3.67507L0.051229 11.4787C0.0449156 12.3209 0.372922 13.1313 0.963294 13.732C1.55367 14.3327 2.3582 14.6747 3.2004 14.683L11.1142 14.683C11.9564 14.6747 12.7609 14.3327 13.3513 13.732C13.9417 13.1313 14.2697 12.3209 14.2634 11.4787Z" fill="white"/>
<path d="M7.1583 2.5434C6.92272 2.5434 6.69678 2.63698 6.5302 2.80356C6.36362 2.97014 6.27004 3.19607 6.27004 3.43165L6.28603 9.33857L4.23356 7.2861C4.067 7.11947 3.84107 7.02582 3.60547 7.02577C3.36987 7.02571 3.1439 7.11925 2.97727 7.28581C2.81063 7.45236 2.71699 7.67829 2.71693 7.91389C2.71687 8.14949 2.81041 8.37547 2.97697 8.5421L5.69267 11.2578C5.88513 11.4503 6.11362 11.603 6.3651 11.7071C6.61657 11.8113 6.8861 11.8649 7.1583 11.8649C7.43049 11.8649 7.70002 11.8113 7.9515 11.7071C8.20297 11.603 8.43146 11.4503 8.62392 11.2578L11.3396 8.54447C11.4221 8.46196 11.4875 8.36402 11.5321 8.25623C11.5767 8.14844 11.5997 8.03292 11.5997 7.91626C11.5996 7.7996 11.5766 7.68409 11.532 7.57633C11.4873 7.46856 11.4218 7.37065 11.3393 7.28818C11.1727 7.12162 10.9467 7.02808 10.7111 7.02814C10.5945 7.02816 10.479 7.05117 10.3712 7.09584C10.2634 7.14051 10.1655 7.20596 10.083 7.28847L8.06254 9.30955L8.04656 3.43165C8.04656 3.19607 7.95297 2.97014 7.78639 2.80356C7.61981 2.63698 7.39388 2.5434 7.1583 2.5434Z" fill="white"/>
</g>
<defs>
<clipPath id="clip0_266_1065">
<rect width="14.2121" height="14.2121" fill="white" transform="translate(14.2639 0.470825) rotate(90)"/>
</clipPath>
</defs>
</svg>
