<svg width="16" height="16" viewBox="0 0 16 16" fill="none" xmlns="http://www.w3.org/2000/svg">
<g clip-path="url(#clip0_266_1073)">
<path d="M7.66667 10.6668C7.40145 10.6668 7.1471 10.7721 6.95956 10.9597C6.77202 11.1472 6.66667 11.4016 6.66667 11.6668V12.2001C6.66667 12.6775 6.47702 13.1353 6.13946 13.4729C5.80189 13.8105 5.34406 14.0001 4.86667 14.0001H3.8C3.32261 14.0001 2.86477 13.8105 2.52721 13.4729C2.18964 13.1353 2 12.6775 2 12.2001V3.80012C2 3.32273 2.18964 2.8649 2.52721 2.52733C2.86477 2.18976 3.32261 2.00012 3.8 2.00012H4.86667C5.34406 2.00012 5.80189 2.18976 6.13946 2.52733C6.47702 2.8649 6.66667 3.32273 6.66667 3.80012V4.33346C6.66667 4.59867 6.77202 4.85303 6.95956 5.04056C7.1471 5.2281 7.40145 5.33346 7.66667 5.33346C7.93188 5.33346 8.18624 5.2281 8.37377 5.04056C8.56131 4.85303 8.66667 4.59867 8.66667 4.33346V3.80012C8.66561 2.79262 8.26491 1.82669 7.5525 1.11429C6.84009 0.401877 5.87416 0.00118092 4.86667 0.00012207L3.8 0.00012207C2.7925 0.00118092 1.82657 0.401877 1.11416 1.11429C0.401755 1.82669 0.00105885 2.79262 0 3.80012L0 12.2001C0.00105885 13.2076 0.401755 14.1735 1.11416 14.886C1.82657 15.5984 2.7925 15.9991 3.8 16.0001H4.86667C5.87416 15.9991 6.84009 15.5984 7.5525 14.886C8.26491 14.1735 8.66561 13.2076 8.66667 12.2001V11.6668C8.66667 11.4016 8.56131 11.1472 8.37377 10.9597C8.18624 10.7721 7.93188 10.6668 7.66667 10.6668Z" fill="white"/>
<path d="M15.0406 6.34966L11.9832 3.29232C11.8903 3.19948 11.7801 3.12584 11.6587 3.07561C11.5374 3.02538 11.4073 2.99954 11.276 2.99957C11.1447 2.9996 11.0146 3.0255 10.8933 3.07579C10.772 3.12608 10.6617 3.19977 10.5689 3.29266C10.3814 3.48025 10.2761 3.73465 10.2761 3.99989C10.2762 4.13123 10.3021 4.26127 10.3524 4.38259C10.4027 4.50392 10.4763 4.61415 10.5692 4.70699L12.8432 6.98099L4.66656 6.99966C4.40135 6.99966 4.14699 7.10501 3.95946 7.29255C3.77192 7.48009 3.66656 7.73444 3.66656 7.99966C3.66656 8.26487 3.77192 8.51923 3.95946 8.70676C4.14699 8.8943 4.40135 8.99966 4.66656 8.99966L12.8786 8.98099L10.5672 11.2923C10.3796 11.4798 10.2742 11.7342 10.2741 11.9994C10.2741 12.2647 10.3794 12.5191 10.5669 12.7067C10.7544 12.8943 11.0088 12.9997 11.274 12.9997C11.5392 12.9998 11.7936 12.8945 11.9812 12.707L15.0386 9.64966C15.4757 9.2119 15.7213 8.61868 15.7217 8.00007C15.7221 7.38146 15.4771 6.78795 15.0406 6.34966Z" fill="white"/>
</g>
<defs>
<clipPath id="clip0_266_1073">
<rect width="16" height="16" fill="white"/>
</clipPath>
</defs>
</svg>
